<mxfile host="app.diagrams.net" modified="2023-11-29T16:21:26.663Z" agent="Mozilla/5.0 (Windows NT 10.0; Win64; x64) AppleWebKit/537.36 (KHTML, like Gecko) Chrome/119.0.0.0 Safari/537.36" version="22.1.5" etag="M8dopIT3YhenOlA4QYJx" type="github">
  <diagram name="Page-1" id="MLb0eEZk8WbDBYt1BTFu">
    <mxGraphModel>
      <root>
        <mxCell id="0" />
        <mxCell id="1" parent="0" />
      </root>
    </mxGraphModel>
  </diagram>
</mxfile>
